<svg width="536" height="346" viewBox="0 0 536 346" fill="none" xmlns="http://www.w3.org/2000/svg">
<mask id="mask0" mask-type="alpha" maskUnits="userSpaceOnUse" x="0" y="0" width="536" height="346">
<path d="M528 0H8C3.58172 0 0 3.58172 0 8V338C0 342.418 3.58172 346 8 346H528C532.418 346 536 342.418 536 338V8C536 3.58172 532.418 0 528 0Z" fill="white"/>
</mask>
<g mask="url(#mask0)">
<path d="M528 0H8C3.58172 0 0 3.58172 0 8V338C0 342.418 3.58172 346 8 346H528C532.418 346 536 342.418 536 338V8C536 3.58172 532.418 0 528 0Z" fill="#E8EAF6"/>
<path fill-rule="evenodd" clip-rule="evenodd" d="M-3.53 0.196999H543.47V59.197H-3.53V0.196999Z" fill="#242A45"/>
<path opacity="0.245" d="M38.47 46.197C47.3066 46.197 54.47 39.0336 54.47 30.197C54.47 21.3604 47.3066 14.197 38.47 14.197C29.6334 14.197 22.47 21.3604 22.47 30.197C22.47 39.0336 29.6334 46.197 38.47 46.197Z" fill="white"/>
<path opacity="0.104" d="M499.47 46.197C508.307 46.197 515.47 39.0336 515.47 30.197C515.47 21.3604 508.307 14.197 499.47 14.197C490.633 14.197 483.47 21.3604 483.47 30.197C483.47 39.0336 490.633 46.197 499.47 46.197Z" fill="white"/>
<path opacity="0.75" d="M186.47 20.197H72.47C70.8131 20.197 69.47 21.5401 69.47 23.197C69.47 24.8539 70.8131 26.197 72.47 26.197H186.47C188.127 26.197 189.47 24.8539 189.47 23.197C189.47 21.5401 188.127 20.197 186.47 20.197Z" fill="white"/>
<path opacity="0.25" d="M130.47 34.197H72.47C70.8131 34.197 69.47 35.5401 69.47 37.197C69.47 38.8539 70.8131 40.197 72.47 40.197H130.47C132.127 40.197 133.47 38.8539 133.47 37.197C133.47 35.5401 132.127 34.197 130.47 34.197Z" fill="white"/>
<path d="M310 93H65C60.5817 93 57 96.5817 57 101V401C57 405.418 60.5817 409 65 409H310C314.418 409 318 405.418 318 401V101C318 96.5817 314.418 93 310 93Z" fill="white"/>
<path d="M472 93H360C355.582 93 352 96.5817 352 101V401C352 405.418 355.582 409 360 409H472C476.418 409 480 405.418 480 401V101C480 96.5817 476.418 93 472 93Z" fill="white"/>
<path opacity="0.5" d="M252.47 131.197H138.47C136.813 131.197 135.47 132.54 135.47 134.197C135.47 135.854 136.813 137.197 138.47 137.197H252.47C254.127 137.197 255.47 135.854 255.47 134.197C255.47 132.54 254.127 131.197 252.47 131.197Z" fill="#242A45"/>
<path d="M104.47 157.197C113.307 157.197 120.47 150.034 120.47 141.197C120.47 132.36 113.307 125.197 104.47 125.197C95.6334 125.197 88.47 132.36 88.47 141.197C88.47 150.034 95.6334 157.197 104.47 157.197Z" fill="#F98E5D"/>
<path opacity="0.25" d="M457.47 115.197H375.47C373.813 115.197 372.47 116.54 372.47 118.197C372.47 119.854 373.813 121.197 375.47 121.197H457.47C459.127 121.197 460.47 119.854 460.47 118.197C460.47 116.54 459.127 115.197 457.47 115.197Z" fill="#242A45"/>
<path opacity="0.25" d="M457.47 135.197H375.47C373.813 135.197 372.47 136.54 372.47 138.197C372.47 139.854 373.813 141.197 375.47 141.197H457.47C459.127 141.197 460.47 139.854 460.47 138.197C460.47 136.54 459.127 135.197 457.47 135.197Z" fill="#242A45"/>
<path opacity="0.25" d="M457.47 155.197H375.47C373.813 155.197 372.47 156.54 372.47 158.197C372.47 159.854 373.813 161.197 375.47 161.197H457.47C459.127 161.197 460.47 159.854 460.47 158.197C460.47 156.54 459.127 155.197 457.47 155.197Z" fill="#242A45"/>
<path opacity="0.25" d="M457.47 175.197H375.47C373.813 175.197 372.47 176.54 372.47 178.197C372.47 179.854 373.813 181.197 375.47 181.197H457.47C459.127 181.197 460.47 179.854 460.47 178.197C460.47 176.54 459.127 175.197 457.47 175.197Z" fill="#242A45"/>
<path opacity="0.25" d="M457.47 209.197H375.47C373.813 209.197 372.47 210.54 372.47 212.197C372.47 213.854 373.813 215.197 375.47 215.197H457.47C459.127 215.197 460.47 213.854 460.47 212.197C460.47 210.54 459.127 209.197 457.47 209.197Z" fill="#242A45"/>
<path opacity="0.25" d="M457.47 229.197H375.47C373.813 229.197 372.47 230.54 372.47 232.197C372.47 233.854 373.813 235.197 375.47 235.197H457.47C459.127 235.197 460.47 233.854 460.47 232.197C460.47 230.54 459.127 229.197 457.47 229.197Z" fill="#242A45"/>
<path opacity="0.25" d="M457.47 249.197H375.47C373.813 249.197 372.47 250.54 372.47 252.197C372.47 253.854 373.813 255.197 375.47 255.197H457.47C459.127 255.197 460.47 253.854 460.47 252.197C460.47 250.54 459.127 249.197 457.47 249.197Z" fill="#242A45"/>
<path opacity="0.25" d="M196.47 145.197H138.47C136.813 145.197 135.47 146.54 135.47 148.197C135.47 149.854 136.813 151.197 138.47 151.197H196.47C198.127 151.197 199.47 149.854 199.47 148.197C199.47 146.54 198.127 145.197 196.47 145.197Z" fill="#242A45"/>
<path d="M104.47 213.197C113.307 213.197 120.47 206.034 120.47 197.197C120.47 188.36 113.307 181.197 104.47 181.197C95.6334 181.197 88.47 188.36 88.47 197.197C88.47 206.034 95.6334 213.197 104.47 213.197Z" fill="#6AC6D6"/>
<path opacity="0.5" d="M252.47 187.197H138.47C136.813 187.197 135.47 188.54 135.47 190.197C135.47 191.854 136.813 193.197 138.47 193.197H252.47C254.127 193.197 255.47 191.854 255.47 190.197C255.47 188.54 254.127 187.197 252.47 187.197Z" fill="#242A45"/>
<path opacity="0.25" d="M196.47 201.197H138.47C136.813 201.197 135.47 202.54 135.47 204.197C135.47 205.854 136.813 207.197 138.47 207.197H196.47C198.127 207.197 199.47 205.854 199.47 204.197C199.47 202.54 198.127 201.197 196.47 201.197Z" fill="#242A45"/>
<path d="M104.47 269.197C113.307 269.197 120.47 262.034 120.47 253.197C120.47 244.36 113.307 237.197 104.47 237.197C95.6334 237.197 88.47 244.36 88.47 253.197C88.47 262.034 95.6334 269.197 104.47 269.197Z" fill="#A47ED4"/>
<path opacity="0.5" d="M252.47 243.197H138.47C136.813 243.197 135.47 244.54 135.47 246.197C135.47 247.854 136.813 249.197 138.47 249.197H252.47C254.127 249.197 255.47 247.854 255.47 246.197C255.47 244.54 254.127 243.197 252.47 243.197Z" fill="#242A45"/>
<path opacity="0.25" d="M196.47 257.197H138.47C136.813 257.197 135.47 258.54 135.47 260.197C135.47 261.854 136.813 263.197 138.47 263.197H196.47C198.127 263.197 199.47 261.854 199.47 260.197C199.47 258.54 198.127 257.197 196.47 257.197Z" fill="#242A45"/>
<path d="M104.47 325.197C113.307 325.197 120.47 318.034 120.47 309.197C120.47 300.36 113.307 293.197 104.47 293.197C95.6334 293.197 88.47 300.36 88.47 309.197C88.47 318.034 95.6334 325.197 104.47 325.197Z" fill="#EC7878"/>
<path opacity="0.5" d="M252.47 299.197H138.47C136.813 299.197 135.47 300.54 135.47 302.197C135.47 303.854 136.813 305.197 138.47 305.197H252.47C254.127 305.197 255.47 303.854 255.47 302.197C255.47 300.54 254.127 299.197 252.47 299.197Z" fill="#242A45"/>
<path opacity="0.25" d="M196.47 313.197H138.47C136.813 313.197 135.47 314.54 135.47 316.197C135.47 317.854 136.813 319.197 138.47 319.197H196.47C198.127 319.197 199.47 317.854 199.47 316.197C199.47 314.54 198.127 313.197 196.47 313.197Z" fill="#242A45"/>
</g>
</svg>
